<?xml version="1.0" encoding="UTF-8" standalone="no"?>
<svg
   xmlns:dc="http://purl.org/dc/elements/1.1/"
   xmlns:cc="http://creativecommons.org/ns#"
   xmlns:rdf="http://www.w3.org/1999/02/22-rdf-syntax-ns#"
   xmlns:svg="http://www.w3.org/2000/svg"
   xmlns="http://www.w3.org/2000/svg"
   viewBox="0 0 793.33331 1122.6667"
   height="1122.6667"
   width="793.33331"
   xml:space="preserve"
   id="svg2"
   version="1.1"><metadata
     id="metadata8"><rdf:RDF><cc:Work
         rdf:about=""><dc:format>image/svg+xml</dc:format><dc:type
           rdf:resource="http://purl.org/dc/dcmitype/StillImage" /></cc:Work></rdf:RDF></metadata><defs
     id="defs6"><clipPath
       id="clipPath20"
       clipPathUnits="userSpaceOnUse"><path
         id="path18"
         d="M 0,0 H 3852.85 V 1498.02 H 0 Z" /></clipPath></defs><g
     transform="matrix(1.3333333,0,0,-1.3333333,0,1122.6667)"
     id="g10"><g
       transform="scale(0.1)"
       id="g12"><g
         id="g14"><g
           clip-path="url(#clipPath20)"
           id="g16"><path
             id="path22"
             style="fill:#1c1a18;fill-opacity:1;fill-rule:nonzero;stroke:none"
             d="M 351.23,17.8398 V 343.109 H 30 v 278.528 h 321.23 v 410.503 h 922.08 L 1146.38,728.055 H 703.613 V 621.637 H 1101.96 L 985.699,343.109 H 703.613 V 17.8398 H 351.23" /><path
             id="path24"
             style="fill:#1c1a18;fill-opacity:1;fill-rule:nonzero;stroke:none"
             d="M 1288.32,1042.14 H 341.23 V 631.637 H 20 v -20 -258.528 -20 H 40 341.23 V 27.8398 7.83984 h 20 332.383 20 V 27.8398 333.109 h 265.426 13.324 l 5.133,12.301 107.914,258.524 11.56,27.703 h -30.02 -373.337 v 86.418 h 426.107 13.33 l 5.13,12.304 118.58,284.081 11.56,27.7 z m -30.02,-20 -118.58,-284.081 H 693.613 V 611.637 H 1086.95 L 979.039,353.109 H 693.613 V 27.8398 H 361.23 V 353.109 H 40 v 258.528 h 321.23 v 410.503 h 897.07" /><path
             id="path26"
             style="fill:#376cbe;fill-opacity:1;fill-rule:nonzero;stroke:none"
             d="M 331.23,37.8398 V 363.109 H 10 v 278.528 h 321.23 v 410.503 h 922.08 L 1126.38,748.059 H 683.613 V 641.637 H 1081.96 L 965.699,363.109 H 683.613 V 37.8398 H 331.23" /><path
             id="path28"
             style="fill:#ffffff;fill-opacity:1;fill-rule:nonzero;stroke:none"
             d="M 1268.32,1062.14 H 321.23 V 651.637 H 0 v -20 -258.528 -20 h 20 301.23 v -305.2692 -20 h 20 332.383 20 v 20 305.2692 h 265.426 13.324 l 5.133,12.301 107.914,258.524 11.56,27.703 h -30.02 -373.337 v 86.422 h 426.107 13.33 l 5.13,12.296 118.58,284.085 11.56,27.7 z m -30.02,-20 -118.58,-284.081 H 673.613 V 631.637 H 1066.95 L 959.039,373.109 H 673.613 V 47.8398 H 341.23 V 373.109 H 20 v 258.528 h 321.23 v 410.503 h 897.07" /><path
             id="path30"
             style="fill:#376cbe;fill-opacity:1;fill-rule:nonzero;stroke:none"
             d="m 3815.54,979.809 v 16.742 l -3.3,-5.016 h -11.82 l -3.1,4.75 v -16.476 h -27.48 v 45.201 h -8.38 v -45.201 h -27.47 v 45.201 h -16.83 v 27.13 h 76.08 l 13.23,-20.32 13.11,20.32 h 23.27 v -72.331 h -27.31" /><path
             id="path32"
             style="fill:#ffffff;fill-opacity:1;fill-rule:nonzero;stroke:none"
             d="m 3852.85,1062.14 h -38.71 l -5.91,-9.16 -1.8,-2.78 -1.85,2.85 -5.92,9.09 h -10.38 -20 -41.12 -20 v -20 -7.13 -20 h 16.83 v -25.201 -20 h 20 7.47 8.38 20 7.48 20 18.22 7.31 20 v 20 52.331 20 z m -84.57,-20 v -7.13 h -16.82 v -45.201 h -7.47 v 45.201 h -16.83 v 7.13 h 41.12 m 64.57,0 v -52.331 h -7.31 v 40.101 l -18.69,-28.37 h -1.02 l -18.51,28.37 v -40.101 h -7.48 v 52.331 h 7.98 l 18.69,-28.71 18.52,28.71 h 7.82" /><path
             id="path34"
             style="fill:#1c1a18;fill-opacity:1;fill-rule:nonzero;stroke:none"
             d="M 2830.21,17.8398 V 730.906 H 2538.95 V 17.8398 H 2186.57 V 730.906 H 1968.61 L 1842.55,1032.14 H 3698.2 V 730.906 H 3176.9 V 658.57 h 485.79 V 398.5 H 3176.9 v -87.941 h 528.4 V 17.8398 h -875.09" /><path
             id="path36"
             style="fill:#1c1a18;fill-opacity:1;fill-rule:nonzero;stroke:none"
             d="M 3708.2,1042.14 H 1827.53 l 11.6,-27.72 117.69,-281.24 5.14,-12.274 h 13.31 201.3 V 27.8398 7.83984 h 20 332.38 20 V 27.8398 720.906 h 271.26 V 27.8398 7.83984 h 20 855.09 20 v 19.99996 272.7192 20 h -20 -508.4 V 388.5 h 465.79 20 v 20 240.07 20 h -20 -465.79 v 52.336 h 501.3 20 v 19.996 8.516 272.722 20 z m -20,-20 V 740.902 H 3166.9 V 648.57 h 485.79 V 408.5 H 3166.9 V 300.559 h 528.4 V 27.8398 H 2840.21 V 740.902 H 2528.95 V 27.8398 H 2196.57 V 740.902 h -221.3 L 1857.58,1022.14 H 3688.2" /><path
             id="path38"
             style="fill:#376cbe;fill-opacity:1;fill-rule:nonzero;stroke:none"
             d="M 2810.21,37.8398 V 750.902 H 2518.95 V 37.8398 H 2166.57 V 750.902 H 1948.61 L 1822.55,1052.14 H 3678.2 V 750.902 H 3156.9 V 678.57 h 485.79 V 418.5 H 3156.9 v -87.941 h 528.4 V 37.8398 h -875.09" /><path
             id="path40"
             style="fill:#ffffff;fill-opacity:1;fill-rule:nonzero;stroke:none"
             d="M 3688.2,1062.14 H 1807.53 l 11.6,-27.72 117.69,-281.24 5.14,-12.278 h 13.31 201.3 v -693.0622 -20 h 20 332.38 20 v 20 693.0622 h 271.26 v -693.0622 -20 h 20 855.09 20 v 20 272.7192 20 h -20 -508.4 V 408.5 h 465.79 20 v 20 240.07 20 h -20 -465.79 v 52.332 h 501.3 20 v 20 8.516 272.722 20 z m -20,-20 V 760.902 H 3146.9 V 668.57 h 485.79 V 428.5 H 3146.9 V 320.559 h 528.4 V 47.8398 H 2820.21 V 760.902 H 2508.95 V 47.8398 H 2176.57 V 760.902 h -221.3 L 1837.58,1042.14 H 3668.2" /><path
             id="path42"
             style="fill:#1c1a18;fill-opacity:1;fill-rule:nonzero;stroke:none"
             d="M 1635.46,406.699 1559,609.793 1482.54,406.699 Z M 2143.3,18.0703 c -124.91,27.5899 -253.23,46.3711 -381.41,55.8086 l -6.26,0.4609 -30.15,76.5702 h -334.31 l -29.49,-76.9998 -6.31,-0.4688 C 1229.52,63.8594 1103.36,45.2383 980.398,18.0703 L 961.598,13.9219 1561.88,1452 1735.85,1032.63 2162.12,13.9102 2143.3,18.0703" /><path
             id="path44"
             style="fill:#1c1a18;fill-opacity:1;fill-rule:nonzero;stroke:none"
             d="m 1497,416.699 62,164.715 62.01,-164.715 H 1497 Z m 64.9,1061.321 -18.51,-44.35 L 959.785,35.5391 944.949,0 982.559,8.30859 C 1105.06,35.3789 1230.75,53.9297 1356.13,63.4609 l 12.62,0.961 4.54,11.8398 24.76,64.6483 h 320.62 l 25.35,-64.3787 4.6,-11.6993 12.54,-0.9218 C 1888.86,54.5 2016.7,35.7891 2141.14,8.30859 L 2178.78,0 2163.9,35.5586 1745.07,1036.51 l -164.75,397.12 -18.42,44.39 z M 1468.1,396.699 h 181.81 L 1559,638.172 1468.1,396.699 M 1561.85,1425.96 1726.62,1028.79 2145.45,27.8398 C 2020.85,55.3594 1893.04,74.25 1762.63,83.8516 l -30.34,77.0584 h -348 l -29.68,-77.4998 c -128.18,-9.75 -253.83,-28.5 -376.368,-55.5704 L 1561.85,1425.96" /><path
             id="path46"
             style="fill:#376cbe;fill-opacity:1;fill-rule:nonzero;stroke:none"
             d="M 1615.46,426.699 1539,629.793 1462.54,426.699 Z M 2123.3,38.0703 c -124.91,27.5899 -253.23,46.3711 -381.41,55.8086 l -6.26,0.4609 -30.15,76.5702 h -334.31 l -29.49,-76.9998 -6.31,-0.4688 C 1209.52,83.8594 1083.36,65.2383 960.398,38.0703 L 941.598,33.9219 1541.88,1472 1715.85,1052.63 2142.12,33.9102 2123.3,38.0703" /><path
             id="path48"
             style="fill:#ffffff;fill-opacity:1;fill-rule:nonzero;stroke:none"
             d="m 1477,436.699 62,164.715 62.01,-164.715 H 1477 Z m 64.9,1061.321 -18.51,-44.35 L 939.785,55.5391 924.949,20 l 37.61,8.3086 c 122.501,27.0703 248.191,45.6211 373.571,55.1523 l 12.62,0.961 4.54,11.8398 24.76,64.6483 h 320.62 l 25.35,-64.3787 4.6,-11.6993 12.54,-0.9218 C 1868.86,74.5 1996.7,55.7891 2121.14,28.3086 L 2158.78,20 2143.9,55.5586 1725.07,1056.51 l -164.75,397.12 -18.42,44.39 z M 1448.1,416.699 h 181.81 L 1539,658.172 1448.1,416.699 M 1541.85,1445.96 1706.62,1048.79 2125.45,47.8398 C 2000.85,75.3594 1873.04,94.25 1742.63,103.852 l -30.34,77.058 h -348 l -29.68,-77.5 C 1206.43,93.6602 1080.78,74.9102 958.242,47.8398 L 1541.85,1445.96" /><path
             id="path50"
             style="fill:#1c1a18;fill-opacity:1;fill-rule:nonzero;stroke:none"
             d="m 1892.7,1263.55 h 49.81 l 40.58,-65.85 40.58,65.85 h 49.82 v -170.09 h -46.9 v 97.68 l -43.5,-66.58 h -0.97 l -43.26,66.09 v -97.19 h -46.16 v 170.09" /><path
             id="path52"
             style="fill:#1c1a18;fill-opacity:1;fill-rule:nonzero;stroke:none"
             d="m 2232.94,1178.02 v 0.48 c 0,24.55 -17.72,45.93 -43.73,45.93 -25.75,0 -43.01,-20.9 -43.01,-45.44 v -0.49 c 0,-24.54 17.74,-45.93 43.5,-45.93 26,0 43.24,20.9 43.24,45.45 z m -135.09,0 v 0.48 c 0,48.85 39.36,88.45 91.85,88.45 52.48,0 91.36,-39.12 91.36,-87.96 v -0.49 c 0,-48.84 -39.36,-88.45 -91.85,-88.45 -52.49,0 -91.36,39.13 -91.36,87.97" /><path
             id="path54"
             style="fill:#1c1a18;fill-opacity:1;fill-rule:nonzero;stroke:none"
             d="m 2281.12,1263.55 h 52.72 l 38.65,-107.64 38.63,107.64 h 51.76 l -69.01,-171.31 h -43.75 l -69,171.31" /><path
             id="path56"
             style="fill:#1c1a18;fill-opacity:1;fill-rule:nonzero;stroke:none"
             d="m 2480.42,1263.55 h 47.39 v -170.09 h -47.39 v 170.09" /><path
             id="path58"
             style="fill:#1c1a18;fill-opacity:1;fill-rule:nonzero;stroke:none"
             d="m 2625.28,1135.25 c 28.19,0 46.89,15.55 46.89,43.01 v 0.49 c 0,27.21 -18.7,43 -46.89,43 h -19.2 v -86.5 z m -66.34,128.3 h 65.61 c 60.75,0 95.98,-34.99 95.98,-84.07 v -0.49 c 0,-49.08 -35.71,-85.53 -96.95,-85.53 h -64.64 v 170.09" /><path
             id="path60"
             style="fill:#1c1a18;fill-opacity:1;fill-rule:nonzero;stroke:none"
             d="m 2874.16,1178.02 v 0.48 c 0,24.55 -17.74,45.93 -43.74,45.93 -25.76,0 -43.01,-20.9 -43.01,-45.44 v -0.49 c 0,-24.54 17.74,-45.93 43.49,-45.93 26.01,0 43.26,20.9 43.26,45.45 z m -135.1,0 v 0.48 c 0,48.85 39.36,88.45 91.84,88.45 52.49,0 91.37,-39.12 91.37,-87.96 v -0.49 c 0,-48.84 -39.36,-88.45 -91.85,-88.45 -52.49,0 -91.36,39.13 -91.36,87.97" /><path
             id="path62"
             style="fill:#1c1a18;fill-opacity:1;fill-rule:nonzero;stroke:none"
             d="m 3083.7,1178.99 c 16.76,0 26.97,8.75 26.97,22.11 v 0.49 c 0,14.57 -10.21,22.35 -27.22,22.35 h -22.12 v -44.95 z m -69.51,84.56 h 72.9 c 43.01,0 70.72,-22.11 70.72,-59.77 v -0.49 c 0,-40.09 -30.86,-61.24 -73.15,-61.24 h -23.33 v -48.59 h -47.14 v 170.09" /><path
             id="path64"
             style="fill:#1c1a18;fill-opacity:1;fill-rule:nonzero;stroke:none"
             d="m 3177.79,1263.55 h 136.8 v -40.09 h -90.15 v -25.76 h 81.65 v -37.18 h -81.65 v -26.97 h 91.37 v -40.09 h -138.02 v 170.09" /><path
             id="path66"
             style="fill:#1c1a18;fill-opacity:1;fill-rule:nonzero;stroke:none"
             d="m 3339.91,1263.55 h 47.14 v -128.79 h 82.37 v -41.3 h -129.51 v 170.09" /><path
             id="path68"
             style="fill:#1c1a18;fill-opacity:1;fill-rule:nonzero;stroke:none"
             d="m 3609.17,1178.02 v 0.48 c 0,24.55 -17.72,45.93 -43.73,45.93 -25.76,0 -43,-20.9 -43,-45.44 v -0.49 c 0,-24.54 17.73,-45.93 43.49,-45.93 26,0 43.24,20.9 43.24,45.45 z m -135.09,0 v 0.48 c 0,48.85 39.36,88.45 91.85,88.45 52.48,0 91.36,-39.12 91.36,-87.96 v -0.49 c 0,-48.84 -39.36,-88.45 -91.85,-88.45 -52.49,0 -91.36,39.13 -91.36,87.97" /><path
             id="path70"
             style="fill:#376cbe;fill-opacity:1;fill-rule:nonzero;stroke:none"
             d="m 1872.7,1285.1 h 49.81 l 40.58,-65.85 40.58,65.85 h 49.82 V 1115 h -46.9 v 97.68 l -43.5,-66.57 h -0.97 l -43.25,66.09 V 1115 h -46.17 v 170.1" /><path
             id="path72"
             style="fill:#376cbe;fill-opacity:1;fill-rule:nonzero;stroke:none"
             d="m 2212.94,1199.56 v 0.49 c 0,24.55 -17.72,45.93 -43.73,45.93 -25.75,0 -43.01,-20.9 -43.01,-45.44 v -0.49 c 0,-24.55 17.74,-45.92 43.5,-45.92 26,0 43.24,20.89 43.24,45.43 z m -135.09,0 v 0.49 c 0,48.84 39.36,88.45 91.85,88.45 52.48,0 91.36,-39.12 91.36,-87.96 v -0.49 c 0,-48.84 -39.36,-88.45 -91.85,-88.45 -52.49,0 -91.36,39.13 -91.36,87.96" /><path
             id="path74"
             style="fill:#376cbe;fill-opacity:1;fill-rule:nonzero;stroke:none"
             d="m 2261.12,1285.1 h 52.72 l 38.65,-107.65 38.63,107.65 h 51.76 l -69.01,-171.31 h -43.75 l -69,171.31" /><path
             id="path76"
             style="fill:#376cbe;fill-opacity:1;fill-rule:nonzero;stroke:none"
             d="m 2460.42,1285.1 h 47.39 V 1115 h -47.39 v 170.1" /><path
             id="path78"
             style="fill:#376cbe;fill-opacity:1;fill-rule:nonzero;stroke:none"
             d="m 2605.28,1156.8 c 28.19,0 46.89,15.55 46.89,43.01 v 0.49 c 0,27.21 -18.7,43 -46.89,43 h -19.2 v -86.5 z m -66.34,128.3 h 65.61 c 60.75,0 95.98,-34.99 95.98,-84.08 v -0.48 c 0,-49.09 -35.71,-85.54 -96.95,-85.54 h -64.64 v 170.1" /><path
             id="path80"
             style="fill:#376cbe;fill-opacity:1;fill-rule:nonzero;stroke:none"
             d="m 2854.16,1199.56 v 0.49 c 0,24.55 -17.74,45.93 -43.74,45.93 -25.76,0 -43.01,-20.9 -43.01,-45.44 v -0.49 c 0,-24.55 17.74,-45.92 43.49,-45.92 26.01,0 43.26,20.89 43.26,45.43 z m -135.1,0 v 0.49 c 0,48.84 39.36,88.45 91.84,88.45 52.49,0 91.37,-39.12 91.37,-87.96 v -0.49 c 0,-48.84 -39.36,-88.45 -91.85,-88.45 -52.49,0 -91.36,39.13 -91.36,87.96" /><path
             id="path82"
             style="fill:#376cbe;fill-opacity:1;fill-rule:nonzero;stroke:none"
             d="m 3063.7,1200.54 c 16.76,0 26.97,8.75 26.97,22.11 v 0.48 c 0,14.58 -10.21,22.36 -27.22,22.36 h -22.12 v -44.95 z m -69.51,84.56 h 72.9 c 43.01,0 70.72,-22.12 70.72,-59.78 v -0.48 c 0,-40.1 -30.86,-61.24 -73.15,-61.24 h -23.33 V 1115 h -47.14 v 170.1" /><path
             id="path84"
             style="fill:#376cbe;fill-opacity:1;fill-rule:nonzero;stroke:none"
             d="m 3157.79,1285.1 h 136.8 v -40.09 h -90.15 v -25.76 h 81.65 v -37.18 h -81.65 v -26.98 h 91.37 V 1115 h -138.02 v 170.1" /><path
             id="path86"
             style="fill:#376cbe;fill-opacity:1;fill-rule:nonzero;stroke:none"
             d="m 3319.91,1285.1 h 47.14 v -128.79 h 82.37 V 1115 h -129.51 v 170.1" /><path
             id="path88"
             style="fill:#376cbe;fill-opacity:1;fill-rule:nonzero;stroke:none"
             d="m 3589.17,1199.56 v 0.49 c 0,24.55 -17.72,45.93 -43.73,45.93 -25.76,0 -43,-20.9 -43,-45.44 v -0.49 c 0,-24.55 17.73,-45.92 43.49,-45.92 26,0 43.24,20.89 43.24,45.43 z m -135.09,0 v 0.49 c 0,48.84 39.36,88.45 91.85,88.45 52.48,0 91.36,-39.12 91.36,-87.96 v -0.49 c 0,-48.84 -39.36,-88.45 -91.85,-88.45 -52.49,0 -91.36,39.13 -91.36,87.96" /><path
             id="path90"
             style="fill:none;stroke:#ffffff;stroke-width:14.17319965;stroke-linecap:butt;stroke-linejoin:miter;stroke-miterlimit:10;stroke-dasharray:none;stroke-opacity:1"
             d="m 1872.7,1284.5 h 49.81 l 40.58,-65.86 40.58,65.86 h 49.82 v -170.1 h -46.9 v 97.68 l -43.5,-66.58 h -0.97 l -43.25,66.1 v -97.2 h -46.17 z" /><path
             id="path92"
             style="fill:none;stroke:#ffffff;stroke-width:14.17319965;stroke-linecap:butt;stroke-linejoin:miter;stroke-miterlimit:10;stroke-dasharray:none;stroke-opacity:1"
             d="m 2212.94,1198.96 v 0.49 c 0,24.55 -17.72,45.93 -43.73,45.93 -25.75,0 -43.01,-20.9 -43.01,-45.44 v -0.49 c 0,-24.54 17.74,-45.93 43.5,-45.93 26,0 43.24,20.9 43.24,45.44 z m -135.09,0 v 0.49 c 0,48.84 39.36,88.45 91.85,88.45 52.48,0 91.36,-39.12 91.36,-87.96 v -0.49 c 0,-48.84 -39.36,-88.45 -91.85,-88.45 -52.49,0 -91.36,39.13 -91.36,87.96 z" /><path
             id="path94"
             style="fill:none;stroke:#ffffff;stroke-width:14.17319965;stroke-linecap:butt;stroke-linejoin:miter;stroke-miterlimit:10;stroke-dasharray:none;stroke-opacity:1"
             d="m 2261.12,1284.5 h 52.72 l 38.65,-107.65 38.63,107.65 h 51.76 l -69.01,-171.31 h -43.75 z" /><path
             id="path96"
             style="fill:none;stroke:#ffffff;stroke-width:14.17319965;stroke-linecap:butt;stroke-linejoin:miter;stroke-miterlimit:10;stroke-dasharray:none;stroke-opacity:1"
             d="m 2460.42,1284.5 h 47.39 v -170.1 h -47.39 z" /><path
             id="path98"
             style="fill:none;stroke:#ffffff;stroke-width:14.17319965;stroke-linecap:butt;stroke-linejoin:miter;stroke-miterlimit:10;stroke-dasharray:none;stroke-opacity:1"
             d="m 2605.28,1156.2 c 28.19,0 46.89,15.55 46.89,43.01 v 0.49 c 0,27.21 -18.7,43 -46.89,43 h -19.2 v -86.5 z m -66.34,128.3 h 65.61 c 60.75,0 95.98,-34.99 95.98,-84.08 v -0.48 c 0,-49.09 -35.71,-85.54 -96.95,-85.54 h -64.64 z" /><path
             id="path100"
             style="fill:none;stroke:#ffffff;stroke-width:14.17319965;stroke-linecap:butt;stroke-linejoin:miter;stroke-miterlimit:10;stroke-dasharray:none;stroke-opacity:1"
             d="m 2854.16,1198.96 v 0.49 c 0,24.55 -17.74,45.93 -43.74,45.93 -25.76,0 -43.01,-20.9 -43.01,-45.44 v -0.49 c 0,-24.54 17.74,-45.93 43.49,-45.93 26.01,0 43.26,20.9 43.26,45.44 z m -135.1,0 v 0.49 c 0,48.84 39.36,88.45 91.84,88.45 52.49,0 91.37,-39.12 91.37,-87.96 v -0.49 c 0,-48.84 -39.36,-88.45 -91.85,-88.45 -52.49,0 -91.36,39.13 -91.36,87.96 z" /><path
             id="path102"
             style="fill:none;stroke:#ffffff;stroke-width:14.17319965;stroke-linecap:butt;stroke-linejoin:miter;stroke-miterlimit:10;stroke-dasharray:none;stroke-opacity:1"
             d="m 3063.7,1199.94 c 16.76,0 26.97,8.74 26.97,22.11 v 0.48 c 0,14.58 -10.21,22.36 -27.22,22.36 h -22.12 v -44.95 z m -69.51,84.56 h 72.9 c 43.01,0 70.72,-22.11 70.72,-59.78 v -0.49 c 0,-40.09 -30.86,-61.23 -73.15,-61.23 h -23.33 v -48.6 h -47.14 z" /><path
             id="path104"
             style="fill:none;stroke:#ffffff;stroke-width:14.17319965;stroke-linecap:butt;stroke-linejoin:miter;stroke-miterlimit:10;stroke-dasharray:none;stroke-opacity:1"
             d="m 3157.79,1284.5 h 136.8 v -40.09 h -90.15 v -25.77 h 81.65 v -37.17 h -81.65 v -26.97 h 91.37 v -40.1 h -138.02 z" /><path
             id="path106"
             style="fill:none;stroke:#ffffff;stroke-width:14.17319965;stroke-linecap:butt;stroke-linejoin:miter;stroke-miterlimit:10;stroke-dasharray:none;stroke-opacity:1"
             d="m 3319.91,1284.5 h 47.14 v -128.79 h 82.37 v -41.31 h -129.51 z" /><path
             id="path108"
             style="fill:none;stroke:#ffffff;stroke-width:14.17319965;stroke-linecap:butt;stroke-linejoin:miter;stroke-miterlimit:10;stroke-dasharray:none;stroke-opacity:1"
             d="m 3589.17,1198.96 v 0.49 c 0,24.55 -17.72,45.93 -43.73,45.93 -25.76,0 -43,-20.9 -43,-45.44 v -0.49 c 0,-24.54 17.73,-45.93 43.49,-45.93 26,0 43.24,20.9 43.24,45.44 z m -135.09,0 v 0.49 c 0,48.84 39.36,88.45 91.85,88.45 52.48,0 91.36,-39.12 91.36,-87.96 v -0.49 c 0,-48.84 -39.36,-88.45 -91.85,-88.45 -52.49,0 -91.36,39.13 -91.36,87.96 z" /></g></g></g></g></svg>